<svg xmlns="http://www.w3.org/2000/svg" viewBox="0 0 100 100" preserveAspectRatio="xMidYMid" width="200" height="200" style="shape-rendering: auto; display: block; background: rgb(255, 255, 255);" xmlns:xlink="http://www.w3.org/1999/xlink"><g><g transform="translate(50 50)">
<g>
<animateTransform repeatCount="indefinite" dur="0.2s" keyTimes="0;1" values="0;25.714285714285715" type="rotate" attributeName="transform"></animateTransform><path fill="#e15b64" d="M20.904544960366874 -2 L33.90454496036688 -2 L33.90454496036688 2 L20.904544960366874 2 A21 21 0 0 1 19.70211168519208 7.268204396150246 L19.70211168519208 7.268204396150246 L31.41470696792353 12.9086930046785 L29.679172011453296 16.51256847628818 L17.966576728721847 10.872079867759924 A21 21 0 0 1 14.59743356022219 15.096851772965746 L14.59743356022219 15.096851772965746 L22.702800984385725 25.26066104505013 L19.575475054513603 27.754620252485065 L11.47010763035007 17.59081098040068 A21 21 0 0 1 6.601554692876251 19.935382505408906 L6.601554692876251 19.935382505408906 L9.494326834308339 32.609445363772615 L5.594615185581043 33.49952909959787 L2.7018430441489554 20.825466241234164 A21 21 0 0 1 -2.7018430441489523 20.825466241234167 L-2.7018430441489523 20.825466241234167 L-5.594615185581038 33.49952909959787 L-9.494326834308334 32.609445363772615 L-6.601554692876248 19.935382505408906 A21 21 0 0 1 -11.47010763035007 17.59081098040068 L-11.47010763035007 17.59081098040068 L-19.575475054513603 27.75462025248507 L-22.702800984385718 25.260661045050135 L-14.597433560222182 15.09685177296575 A21 21 0 0 1 -17.966576728721847 10.87207986775992 L-17.966576728721847 10.87207986775992 L-29.679172011453296 16.512568476288177 L-31.414706967923525 12.908693004678508 L-19.702111685192076 7.268204396150252 A21 21 0 0 1 -20.904544960366874 1.9999999999999984 L-20.904544960366874 1.9999999999999984 L-33.90454496036688 2 L-33.90454496036688 -1.999999999999992 L-20.904544960366874 -1.9999999999999936 A21 21 0 0 1 -19.70211168519208 -7.268204396150247 L-19.70211168519208 -7.268204396150247 L-31.41470696792353 -12.9086930046785 L-29.679172011453296 -16.51256847628817 L-17.966576728721847 -10.872079867759917 A21 21 0 0 1 -14.597433560222187 -15.096851772965747 L-14.597433560222187 -15.096851772965747 L-22.702800984385725 -25.260661045050135 L-19.575475054513603 -27.75462025248507 L-11.470107630350066 -17.59081098040068 A21 21 0 0 1 -6.601554692876258 -19.935382505408906 L-6.601554692876258 -19.935382505408906 L-9.494326834308346 -32.609445363772615 L-5.594615185581042 -33.49952909959787 L-2.701843044148953 -20.825466241234167 A21 21 0 0 1 2.701843044148945 -20.825466241234167 L2.701843044148945 -20.825466241234167 L5.594615185581031 -33.49952909959787 L9.494326834308335 -32.609445363772615 L6.601554692876251 -19.935382505408906 A21 21 0 0 1 11.470107630350059 -17.590810980400686 L11.470107630350059 -17.590810980400686 L19.57547505451359 -27.754620252485076 L22.702800984385718 -25.260661045050135 L14.597433560222187 -15.096851772965746 A21 21 0 0 1 17.96657672872184 -10.87207986775993 L17.96657672872184 -10.87207986775993 L29.67917201145329 -16.512568476288187 L31.41470696792353 -12.908693004678504 L19.70211168519208 -7.268204396150246 A21 21 0 0 1 20.90454496036687 -2.00000000000001 M0 -23A23 23 0 1 0 0 23 A23 23 0 1 0 0 -23"></path></g></g><g></g></g><!-- [ldio] generated by https://loading.io --></svg>